<?xml version="1.0" encoding="utf-8"?>
<!-- Svg Vector Icons : http://www.onlinewebfonts.com/icon -->
<!DOCTYPE svg PUBLIC "-//W3C//DTD SVG 1.1//EN" "http://www.w3.org/Graphics/SVG/1.1/DTD/svg11.dtd">
<svg version="1.1" xmlns="http://www.w3.org/2000/svg" xmlns:xlink="http://www.w3.org/1999/xlink" x="0px" y="0px" viewBox="0 0 256 256" enable-background="new 0 0 256 256" xml:space="preserve">
<metadata> Svg Vector Icons : http://www.onlinewebfonts.com/icon </metadata>
<g><g><g><path stroke-width="4" fill-opacity="0" stroke="#000000"  d="M79.9,20.9c-6.3,2-12.7,7.8-15.2,13.5c-1.5,3.4-1.7,5.1-1.4,10.1c0.5,7.1,2.4,11.9,6.8,16.8c5.5,6,12,7.8,23.4,6.6c1.5-0.2,2.9,2.3,11.5,19.6l9.8,19.8l-2.7,2.6c-1.5,1.4-3.5,4.1-4.3,6l-1.7,3.4h-8c-4.5,0-15.5,0.2-24.5,0.5l-16.4,0.5l-2.8-4.2c-3.4-5.2-8.8-9-14.7-10.1c-12.1-2.5-23.2,2.7-28.1,13.3c-2.4,5.3-2.3,15.4,0.2,21.1c3.4,7.5,10.7,12.5,20,13.4c12,1.1,21.9-5.4,25.2-16.7l1.1-3.9l5.4-0.5c3-0.3,13.8-0.6,24-0.6l18.6-0.1l0.6,2.1c0.2,1.3,1.4,3.5,2.4,5.2c1.1,1.7,1.8,3.6,1.6,4.3c-0.3,0.8-4.2,11.1-8.9,23L93.6,188h-6.4c-10.2,0-16.9,4.2-21.5,13.7c-1.8,3.8-2.1,5.4-2.1,11.1c0,6.1,0.2,7.1,2.4,11c7.5,13.3,26.4,16.8,37.6,7c4.9-4.3,7.7-10.4,8.2-17.5c0.4-6.8-0.5-10.4-4.3-15.7l-2.8-3.9l8.4-21.7l8.4-21.7h7.6c6.4,0,8.1-0.2,11.3-2c3.5-1.7,9.2-7.2,11.2-10.5c0.7-1.2,3.1-0.3,23.1,8.4l22.3,9.8l0.3,3.5c1.3,14.6,18.2,25.4,32.4,20.7c5.3-1.7,11.2-7.2,14-12.8c1.9-3.9,2.2-5.4,2.2-11.2c0-5.3-0.4-7.3-1.7-9.8c-2.2-4.1-7.5-9.2-12-11.4c-3.8-2-12-2.9-16.7-2c-3.6,0.7-9.7,4.8-12.3,8.4l-2.1,2.9L178,134.1l-23.1-10.1l-1.1-3.7c-1.3-4.5-2.7-6.9-6.2-10.6l-2.6-2.8l13.8-18.8c7.5-10.4,14.2-19.3,14.7-19.8c0.7-0.7,2-0.5,5.7,0.7c11.4,3.9,23-1.6,28.9-13.4c2.4-4.8,2.5-15.5,0.4-19.8c-2.6-5.2-6.7-9.2-12.2-11.9c-4.5-2.2-6.1-2.6-11.2-2.6c-5,0-6.5,0.3-10.1,2.4c-8.6,4.7-13.4,13.1-13.4,23c0,3.5,0.6,6.4,1.7,8.7l1.6,3.5l-1.8,2.5c-1,1.3-8,10.9-15.6,21.3l-13.8,18.9h-3.9l-3.9,0.1l-10-20.5l-10-20.5l2.3-3.5c4-6.4,4.7-12.3,2.5-19.7c-2.2-7.4-7.5-13.8-13.5-16.3C92.6,19.2,85.4,19.1,79.9,20.9z M92.7,33c4.4,2,6.6,4.6,7.2,8.8c0.6,3.7-1.7,9.1-5,12.1c-2.3,2-3.4,2.4-6.8,2.4c-4.9,0-10.2-2.8-12-6.3c-3.1-5.9,0.2-15.1,6.3-17.8C85.8,30.7,88.2,30.9,92.7,33z M192.7,35c4.9,2.9,7.1,11.3,4.4,16.5c-3,5.7-12.4,8.2-18.2,4.7c-5.3-3.3-7.2-13-3.5-17.9C178.9,33.5,187.6,31.9,192.7,35z M137,115.7c3.4,2,5.1,5.6,5.1,10.5c0,7.9-4.2,12.1-12.1,12.1c-2.8,0-5.2-0.5-6.8-1.4c-8.5-5-6.9-19.7,2.4-22.5C128.8,113.5,134.3,114.1,137,115.7z M40.6,118.8c5.6,3.9,7.6,11.4,4.4,16.6c-2.2,3.5-7.5,6.6-11.5,6.6c-6.1,0-12-6.4-12-13C21.5,119.7,32.8,113.6,40.6,118.8z M230.4,147.7c5,5.4,5.3,13,0.8,17.5c-8.5,8.5-21.7,2.8-21.7-9.3c0-7.1,6.1-12,14.1-11.4C227.2,144.8,228.2,145.3,230.4,147.7z M93.9,201.2c3.7,2.5,6.2,7.2,6.2,11.7c0,3.1-0.5,4.2-2.5,6.6c-6.6,7.5-16.6,6.5-20.8-2c-3.5-6.8-1.6-12.7,5.2-16.3C86.4,198.9,90.5,198.8,93.9,201.2z"/></g></g></g>
</svg>