<?xml version="1.0" encoding="utf-8"?>
<!-- Svg Vector Icons : http://www.onlinewebfonts.com/icon -->
<!DOCTYPE svg PUBLIC "-//W3C//DTD SVG 1.1//EN" "http://www.w3.org/Graphics/SVG/1.1/DTD/svg11.dtd">
<svg version="1.1" xmlns="http://www.w3.org/2000/svg" xmlns:xlink="http://www.w3.org/1999/xlink" x="0px" y="0px" viewBox="0 0 256 256" enable-background="new 0 0 256 256" xml:space="preserve">
<metadata> Svg Vector Icons : http://www.onlinewebfonts.com/icon </metadata>
<g><g><g><path stroke-width="4" fill-opacity="0" stroke="#000000"  d="M27.4,127.7c-0.9,0.2-1.8,0.2-2.6,0.2c-7,0-13.2-5-14.5-12.1c-1.4-8,3.9-15.7,11.9-17.1c36.1-6.5,74.9-24.9,115.4-54.5l-17-20.7L201.8,10l-28.9,77.2L156.3,67C111.2,100.2,68.9,120.3,27.4,127.7z M54.2,172.2H39.5c-8.1,0-14.8,6.6-14.8,14.7v44.3c0,8.2,6.6,14.8,14.8,14.8h14.8c8.2,0,14.7-6.6,14.7-14.8V187C69,178.8,62.4,172.2,54.2,172.2z M172.3,113.2h-14.8c-8.1,0-14.7,6.6-14.7,14.7v103.3c0,8.2,6.6,14.8,14.7,14.8h14.8c8.2,0,14.8-6.6,14.8-14.8V128C187,119.8,180.4,113.2,172.3,113.2z M231.3,83.7h-14.8c-8.2,0-14.7,6.6-14.7,14.8v132.8c0,8.2,6.6,14.8,14.7,14.8h14.8c8.1,0,14.7-6.6,14.7-14.8V98.5C246,90.3,239.4,83.7,231.3,83.7z M113.2,142.7H98.5c-8.1,0-14.8,6.6-14.8,14.7v73.7c0,8.2,6.6,14.8,14.8,14.8h14.7c8.2,0,14.8-6.6,14.8-14.8v-73.7C128,149.3,121.4,142.7,113.2,142.7z"/></g><g></g><g></g><g></g><g></g><g></g><g></g><g></g><g></g><g></g><g></g><g></g><g></g><g></g><g></g><g></g></g></g>
</svg>