<?xml version="1.0" encoding="utf-8"?>
<!-- Svg Vector Icons : http://www.onlinewebfonts.com/icon -->
<!DOCTYPE svg PUBLIC "-//W3C//DTD SVG 1.1//EN" "http://www.w3.org/Graphics/SVG/1.1/DTD/svg11.dtd">
<svg version="1.1" xmlns="http://www.w3.org/2000/svg" xmlns:xlink="http://www.w3.org/1999/xlink" x="0px" y="0px" viewBox="0 0 256 256" enable-background="new 0 0 256 256" xml:space="preserve">
<metadata> Svg Vector Icons : http://www.onlinewebfonts.com/icon </metadata>
<g><g><path stroke-width="4" fill-opacity="0" stroke="#000000"  d="M156.7,10l5.3,4.6l67.5,65l-13,13.6c0,0-32.2-31-52.1-50.2c-0.1-0.1-0.3-0.3-0.4-0.4c0.6,6,0.9,12,0.9,18.1c0,6.2-0.4,12.2-0.9,18.3c-0.2,1.9-0.5,3.8-0.7,5.8c-0.5,4.1-1.1,8.1-1.9,12.1c-0.4,2.2-0.9,4.3-1.3,6.5c-0.8,3.7-1.8,7.4-2.8,11.1c-0.6,2.1-1.2,4.2-1.9,6.3c-1.3,3.9-2.7,7.7-4.2,11.4c-0.7,1.7-1.2,3.4-2,5c-2.2,5.2-4.6,10.2-7.3,15.1c-0.9,1.8-2,3.4-3,5.2c-1.8,3.2-3.7,6.3-5.7,9.4c-1.4,2.2-2.9,4.2-4.4,6.4c-1.8,2.5-3.6,4.9-5.5,7.3c-1.7,2.2-3.5,4.3-5.3,6.4c-1.9,2.2-3.8,4.2-5.7,6.3c-2,2.1-3.9,4.2-6,6.2c-1.9,1.9-3.9,3.6-5.9,5.4c-4.4,4-9,7.7-13.8,11.3c-1.7,1.3-3.3,2.6-5,3.8c-2.8,1.9-5.7,3.7-8.5,5.5c-1.9,1.2-3.8,2.4-5.7,3.4c-3,1.7-6,3.3-9,4.8c-2,1-3.9,1.9-5.9,2.8c-3.2,1.5-6.3,2.9-9.6,4.2c-1.9,0.7-3.8,1.4-5.8,2.1c-3.4,1.2-6.9,2.2-10.4,3.3v-19.1c69.6-23.2,119.9-88.7,119.9-166.2c0-4.4-0.4-8.6-0.7-12.9c-20.6,20.3-50.5,49.8-50.5,49.8L81.9,83.3l69.6-68.7L156.7,10z"/></g></g>
</svg>