<?xml version="1.0" encoding="utf-8"?>
<!-- Generator: Adobe Illustrator 16.0.4, SVG Export Plug-In . SVG Version: 6.00 Build 0)  -->
<!DOCTYPE svg PUBLIC "-//W3C//DTD SVG 1.1//EN" "http://www.w3.org/Graphics/SVG/1.1/DTD/svg11.dtd">
<svg version="1.1" id="Lager_1" xmlns="http://www.w3.org/2000/svg" xmlns:xlink="http://www.w3.org/1999/xlink" x="0px" y="0px"
	 width="468.377px" height="106.267px" viewBox="0 0 468.377 106.267" enable-background="new 0 0 468.377 106.267"
	 xml:space="preserve">
<g>
	<g>
		<g>
			<path fill="#3C3C3B" d="M214.784,25.711c0.067-0.601,0.667-1.067,1.201-1.067h1.067c0.333,0,0.934,0.267,1.134,0.667
				l15.474,28.812h0.133l15.474-28.812c0.2-0.4,0.8-0.667,1.134-0.667h1.067c0.533,0,1.134,0.467,1.2,1.067l7.537,44.819
				c0.134,0.867-0.467,1.468-1.267,1.468h-7.87c-0.6,0-1.201-0.533-1.267-1.067l-3.001-20.608h-0.133L235.46,71.932
				c-0.2,0.399-0.8,0.733-1.134,0.733h-1.201c-0.4,0-0.934-0.334-1.134-0.733L220.72,50.322h-0.133l-2.935,20.608
				c-0.067,0.534-0.601,1.067-1.268,1.067h-7.87c-0.8,0-1.4-0.601-1.267-1.468L214.784,25.711z"/>
			<path fill="#3C3C3B" d="M261.41,70.264l20.875-44.887c0.2-0.399,0.667-0.733,1.134-0.733h0.667c0.467,0,0.934,0.334,1.134,0.733
				l20.876,44.887c0.4,0.867-0.133,1.734-1.134,1.734h-7.403c-1.2,0-1.734-0.4-2.334-1.667l-2.401-5.27h-18.142l-2.401,5.336
				c-0.333,0.8-1.067,1.601-2.401,1.601h-7.336C261.543,71.998,261.009,71.131,261.41,70.264z M288.821,55.991l-5.068-11.005h-0.067
				l-5.002,11.005H288.821z"/>
			<path fill="#3C3C3B" d="M320.104,48.054l-13.472-20.876c-0.534-0.866,0-1.867,1.134-1.867h9.737c0.467,0,0.867,0.334,1.067,0.601
				l7.67,12.405h0.066l7.804-12.405c0.133-0.267,0.6-0.601,1.067-0.601h9.738c1.133,0,1.734,1.001,1.133,1.867l-13.539,20.876
				l14.005,22.077c0.602,0.934,0,1.867-1.066,1.867h-9.271c-0.4,0-0.934-0.267-1.134-0.601l-8.737-13.473h-0.134l-8.537,13.473
				c-0.199,0.268-0.6,0.601-1.134,0.601h-9.271c-1.134,0-1.734-1-1.134-1.867L320.104,48.054z"/>
			<path fill="#3C3C3B" d="M351.256,26.578c0-0.667,0.6-1.268,1.266-1.268h8.004c0.668,0,1.268,0.601,1.268,1.268V70.73
				c0,0.667-0.6,1.268-1.268,1.268h-8.004c-0.666,0-1.266-0.601-1.266-1.268V26.578z"/>
			<path fill="#3C3C3B" d="M375.2,25.711c0.066-0.601,0.668-1.067,1.201-1.067h1.066c0.334,0,0.934,0.267,1.135,0.667l15.473,28.812
				h0.135l15.473-28.812c0.199-0.4,0.801-0.667,1.135-0.667h1.066c0.533,0,1.133,0.467,1.201,1.067l7.535,44.819
				c0.135,0.867-0.467,1.468-1.266,1.468h-7.871c-0.6,0-1.201-0.533-1.268-1.067l-3-20.608h-0.135l-11.205,21.609
				c-0.199,0.399-0.801,0.733-1.133,0.733h-1.201c-0.4,0-0.934-0.334-1.133-0.733l-11.273-21.609h-0.133l-2.934,20.608
				c-0.068,0.534-0.602,1.067-1.268,1.067h-7.871c-0.799,0-1.4-0.601-1.268-1.468L375.2,25.711z"/>
			<path fill="#3C3C3B" d="M444.368,24.644c13.338,0,24.01,10.738,24.01,24.077c0,13.34-10.672,23.944-24.01,23.944
				c-13.34,0-23.945-10.604-23.945-23.944C420.422,35.382,431.028,24.644,444.368,24.644z M444.368,61.993
				c7.336,0,13.338-6.002,13.338-13.272c0-7.336-6.002-13.405-13.338-13.405c-7.27,0-13.273,6.069-13.273,13.405
				C431.094,55.991,437.098,61.993,444.368,61.993z"/>
		</g>
		<g>
			<path fill="#3C3C3B" d="M245.72,94.279l-0.652-1.799h-4.552l-0.668,1.799h-2.578l4.106-10.615h2.833l4.09,10.615H245.72z
				 M242.792,85.924l-1.655,4.566h3.311L242.792,85.924z"/>
			<path fill="#3C3C3B" d="M258.83,94.279l-5.061-6.924v6.924h-2.26V83.664h2.324l4.917,6.668v-6.668h2.26v10.615H258.83z"/>
			<path fill="#3C3C3B" d="M268.312,94.279l-4.106-10.615h2.578l2.944,8.164l2.928-8.164h2.578l-4.09,10.615H268.312z"/>
			<path fill="#3C3C3B" d="M285.019,94.279l-0.652-1.799h-4.552l-0.668,1.799h-2.578l4.106-10.615h2.833l4.09,10.615H285.019z
				 M280.42,82.979c-0.605,0-1.083-0.477-1.083-1.082c0-0.588,0.478-1.066,1.083-1.066c0.589,0,1.066,0.479,1.066,1.066
				C281.486,82.502,281.009,82.979,280.42,82.979z M282.091,85.924l-1.655,4.566h3.311L282.091,85.924z M283.778,82.979
				c-0.589,0-1.082-0.477-1.082-1.082c0-0.588,0.493-1.066,1.082-1.066s1.082,0.479,1.082,1.066
				C284.86,82.502,284.367,82.979,283.778,82.979z"/>
			<path fill="#3C3C3B" d="M298.129,94.279l-5.061-6.924v6.924h-2.26V83.664h2.324l4.917,6.668v-6.668h2.26v10.615H298.129z"/>
			<path fill="#3C3C3B" d="M304.635,94.279V83.664h4.186c3.326,0,5.634,2.115,5.634,5.314s-2.308,5.301-5.634,5.301H304.635z
				 M312.146,88.979c0-1.877-1.146-3.326-3.326-3.326h-1.926v6.637h1.926C310.921,92.289,312.146,90.777,312.146,88.979z"/>
			<path fill="#3C3C3B" d="M325.066,94.279l-0.652-1.799h-4.552l-0.668,1.799h-2.578l4.106-10.615h2.833l4.09,10.615H325.066z
				 M322.138,85.924l-1.655,4.566h3.311L322.138,85.924z"/>
			<path fill="#3C3C3B" d="M336.855,94.279l-2.085-3.771h-1.655v3.771h-2.26V83.664h4.965c2.212,0,3.565,1.447,3.565,3.422
				c0,1.877-1.177,2.881-2.324,3.15l2.388,4.043H336.855z M337.078,87.086c0-0.893-0.685-1.434-1.592-1.434h-2.371v2.865h2.371
				C336.394,88.518,337.078,87.977,337.078,87.086z"/>
			<path fill="#3C3C3B" d="M343.313,94.279V83.664h7.512v1.988h-5.252v2.244h5.141v1.99h-5.141v4.393H343.313z"/>
			<path fill="#3C3C3B" d="M354.116,88.979c0-3.199,2.34-5.49,5.539-5.49c3.215,0,5.555,2.291,5.555,5.49s-2.34,5.492-5.555,5.492
				C356.456,94.471,354.116,92.178,354.116,88.979z M362.885,88.979c0-1.988-1.273-3.484-3.23-3.484s-3.215,1.496-3.215,3.484
				c0,1.975,1.258,3.486,3.215,3.486S362.885,90.953,362.885,88.979z M358,82.979c-0.605,0-1.084-0.477-1.084-1.082
				c0-0.588,0.479-1.066,1.084-1.066c0.588,0,1.064,0.479,1.064,1.066C359.065,82.502,358.588,82.979,358,82.979z M361.358,82.979
				c-0.59,0-1.082-0.477-1.082-1.082c0-0.588,0.492-1.066,1.082-1.066c0.588,0,1.082,0.479,1.082,1.066
				C362.44,82.502,361.946,82.979,361.358,82.979z"/>
			<path fill="#3C3C3B" d="M375.026,94.279l-2.086-3.771h-1.654v3.771h-2.26V83.664h4.965c2.211,0,3.564,1.447,3.564,3.422
				c0,1.877-1.178,2.881-2.324,3.15l2.389,4.043H375.026z M375.249,87.086c0-0.893-0.686-1.434-1.592-1.434h-2.371v2.865h2.371
				C374.563,88.518,375.249,87.977,375.249,87.086z"/>
			<path fill="#3C3C3B" d="M381.483,94.279V83.664h7.512v1.988h-5.252v2.244h5.141v1.99h-5.141v2.402h5.252v1.99H381.483z"/>
			<path fill="#3C3C3B" d="M400.307,94.279l-5.061-6.924v6.924h-2.26V83.664h2.322l4.918,6.668v-6.668h2.26v10.615H400.307z"/>
			<path fill="#3C3C3B" d="M406.811,94.279V83.664h2.26v10.615H406.811z"/>
			<path fill="#3C3C3B" d="M420.719,94.279l-5.061-6.924v6.924h-2.26V83.664h2.322l4.918,6.668v-6.668h2.26v10.615H420.719z"/>
			<path fill="#3C3C3B" d="M426.715,88.979c0-3.357,2.547-5.49,5.648-5.49c2.213,0,3.598,1.115,4.393,2.371l-1.877,1.02
				c-0.479-0.748-1.385-1.385-2.516-1.385c-1.924,0-3.326,1.48-3.326,3.484c0,2.006,1.402,3.486,3.326,3.486
				c0.939,0,1.832-0.414,2.262-0.812v-1.273h-2.803v-1.973h5.062v4.074c-1.082,1.209-2.596,2.006-4.521,2.006
				C429.262,94.486,426.715,92.32,426.715,88.979z"/>
		</g>
	</g>
</g>
<g>
	<g>
		<g>
			<path fill="#226B8F" d="M152.33,26.28v-8.604l-24.385-2.551L43.647,28.536v10.011c0,0-0.002,0.004-0.002,0.004
				c7.861-4.07,22.523-8.206,41.084-11.16c28.068-4.466,55.857-4.763,67.603-1.109C152.333,26.281,152.331,26.28,152.33,26.28z"/>
		</g>
	</g>
	<g>
		<path fill="#1F6080" d="M156.703,28.343c-7.171-5.707-39.395-6.135-71.973-0.952c-32.577,5.183-53.171,14.012-46,19.721
			c2.985,2.377,10.321,3.834,20.208,4.355c1.712-0.51,3.43-0.998,5.155-1.451c9.923-2.605,20.059-4.406,30.224-5.772
			c10.271-1.382,20.634-2.274,30.999-2.484c4.432-0.089,8.87-0.055,13.298,0.18C153.888,37.358,161.492,32.155,156.703,28.343z"/>
	</g>
	<g>
		<g>
			<path fill="#FFAA00" d="M35.028,83.974h3.717c2.081,0,3.121-1.19,3.27-3.271L48.554,0h27.792l16.942,41.912
				c2.676,6.688,5.35,15.308,5.35,15.308h0.298c0,0,2.675-8.619,5.35-15.308L121.229,0h27.793l6.54,80.702
				c0.147,2.081,1.188,3.271,3.267,3.271h3.716v22.293H140.55c-7.578,0-10.256-3.27-10.849-10.849l-2.379-34.036
				c-0.593-8.025,0-17.834,0-17.834h-0.295c0,0-3.122,11.295-5.945,17.834l-11.891,27.793H88.385l-11.89-27.793
				c-2.825-6.539-5.945-17.834-5.945-17.834h-0.298c0,0,0.593,9.809,0,17.834l-2.379,34.036
				c-0.594,7.579-3.268,10.849-10.849,10.849H35.028V83.974z"/>
		</g>
	</g>
	<g>
		<polygon fill="#2A84AF" points="195.432,22.183 196.988,35.382 166.933,58.792 165.204,44.784 		"/>
	</g>
	<g>
		<polygon fill="#2F93C4" points="165.204,44.784 166.933,58.792 69.158,74.337 67.488,60.328 		"/>
	</g>
	<g>
		<polygon fill="#1F6080" points="67.488,60.328 69.158,74.337 1.542,66.282 0,53.272 		"/>
	</g>
	<g>
		<path fill="#226B8F" d="M152.33,17.676v8.604c1.89,0.588,3.38,1.273,4.373,2.062c7.172,5.709-13.424,14.538-46,19.721
			c-32.578,5.182-64.801,4.758-71.973-0.952c-3.086-2.456-1.021-5.491,4.917-8.564V28.536l-13.419,2.137L0,53.272l67.488,7.056
			l97.716-15.544l30.228-22.602L152.33,17.676z"/>
	</g>
</g>
<g>
</g>
<g>
</g>
<g>
</g>
<g>
</g>
<g>
</g>
<g>
</g>
</svg>
