<?xml version="1.0" encoding="utf-8"?>
<!-- Generator: Adobe Illustrator 16.0.4, SVG Export Plug-In . SVG Version: 6.00 Build 0)  -->
<!DOCTYPE svg PUBLIC "-//W3C//DTD SVG 1.1//EN" "http://www.w3.org/Graphics/SVG/1.1/DTD/svg11.dtd">
<svg
   version="1.1"
   id="svg2"
   width="145.46667"
   height="60.373333"
   viewBox="0 0 145.46667 60.373333"
   xmlns="http://www.w3.org/2000/svg" 
   xmlns:xlink="http://www.w3.org/1999/xlink"
   enable-background="new 0 0 468.377 106.267"
	xml:space="preserve">
  <g
     id="g8"
     transform="matrix(1.3333333,0,0,-1.3333333,0,60.373333)">    
     <g
       id="g10"
       transform="scale(0.1)">
      <path
         d="M 1026.51,89.9375 C 1010.67,2.75391 957.66,0.0390625 899.457,0 L 0,0.0898438 78.6094,354.703 1091.03,452.813 C 1038.19,153.938 1038.45,155.625 1026.51,89.9375"
         style="fill:#aa1f2e;fill-opacity:1;fill-rule:nonzero;stroke:none"
         id="path12" />
      <path
         d="m 178.598,263.969 -13.852,-61.426 22.641,1.023 c 7.109,0.321 14.543,1.36 19.269,14.629 1.699,4.657 7.446,28.282 7.446,36.059 0,12.012 -11.157,11.305 -14.879,11.059 z m -48.328,38.875 89.578,6.992 c 14.199,1.113 50.703,3.602 50.703,-36.32 0,-5.399 -0.672,-13.36 -2.367,-20.645 l -7.774,-37.387 c -8.785,-41.546 -20.961,-55.168 -61.527,-56.425 L 154.945,157.691 132.984,59.875 H 75.1719 L 130.27,302.844"
         style="fill:#ffffff;fill-opacity:1;fill-rule:nonzero;stroke:none"
         id="path14" />
      <path
         d="m 312.805,317.102 120.004,9.375 -9.465,-46.676 -61.864,-4.004 -12.511,-59.738 58.824,2.75 -9.125,-45.289 -59.16,-1.985 -13.867,-66.308 67.613,0.925 -9.461,-46.277 H 257.699 l 55.106,257.227"
         style="fill:#ffffff;fill-opacity:1;fill-rule:nonzero;stroke:none"
         id="path16" />
      <path
         d="M 515.09,287.055 478.563,105.141 c 19.953,0.261 20.636,0.269 25.375,1.093 5.054,0.856 14.519,2.536 19.261,25.914 l 26.367,134.825 c 0.34,2.382 0.684,4.757 0.684,7.101 0,12.914 -7.105,14.813 -16.914,14.18 z m -48.356,43.14 66.942,5.235 c 42.258,3.316 75.387,5.101 75.387,-41.864 0,-7.175 -1.016,-17.183 -2.711,-26.843 L 579.313,127.785 c -9.809,-50.5936 -18.93,-67.91 -65.915,-67.91 H 411.641 l 55.093,270.32"
         style="fill:#ffffff;fill-opacity:1;fill-rule:nonzero;stroke:none"
         id="path18" />
      <path
         d="m 726.246,323.691 -43.258,-150.73 32.442,0.996 z m -38.535,23.743 92.969,7.257 -17.246,-294.816 h -56.797 l 5.074,64.359 -44.285,-0.773 -20.285,-63.586 h -61.864 l 102.434,287.559"
         style="fill:#ffffff;fill-opacity:1;fill-rule:nonzero;stroke:none"
         id="path20" />
      <path
         d="m 895.625,308.668 -12.168,-66.754 20.625,0.969 c 13.52,0.648 21.977,4.066 25.688,24.617 l 3.722,20.59 c 0.34,2.625 0.672,5.242 0.672,7.848 0,15.191 -9.801,14.566 -19.266,13.957 z m -21.633,-118.461 -13.855,-77.539 25.019,0.34 c 16.891,0.23 19.258,11.457 22.305,28.32 l 4.734,26 c 0.672,2.61 1.012,6.063 1.012,9.52 0,11.218 -7.445,14.406 -16.562,14.121 z m -26.703,169.238 68.617,5.375 c 33.473,2.618 73.016,5.707 73.016,-44.457 0,-17.164 -5.406,-46.492 -7.77,-55.847 -6.425,-24.883 -15.882,-34.067 -41.918,-40.395 10.485,-3.043 29.414,-8.848 29.414,-38.18 0,-14.441 -9.8,-71.921 -16.574,-91.191 C 942.613,68.1367 923.02,59.875 893.938,59.875 H 792.523 l 54.766,299.57"
         style="fill:#ffffff;fill-opacity:1;fill-rule:nonzero;stroke:none"
         id="path22" />
    </g>
  </g>
</svg>
